<svg xmlns="http://www.w3.org/2000/svg" viewBox="0 0 400 300" fill="none">
  <rect width="400" height="300" fill="#e8f5e9"/>
  <rect x="50" y="50" width="300" height="200" rx="16" fill="#fff" stroke="#2a8a60" stroke-width="3"/>
  <rect x="50" y="50" width="300" height="50" rx="16" fill="#2a8a60"/>
  <text x="200" y="85" text-anchor="middle" font-family="Arial, sans-serif" font-size="20" fill="#fff" font-weight="bold">30 DAY CHALLENGE</text>
  <g fill="#e8f5e9">
    <rect x="70" y="120" width="40" height="40" rx="8"/>
    <rect x="120" y="120" width="40" height="40" rx="8"/>
    <rect x="170" y="120" width="40" height="40" rx="8"/>
    <rect x="220" y="120" width="40" height="40" rx="8"/>
    <rect x="270" y="120" width="40" height="40" rx="8"/>
    <rect x="70" y="170" width="40" height="40" rx="8"/>
    <rect x="120" y="170" width="40" height="40" rx="8"/>
    <rect x="170" y="170" width="40" height="40" rx="8"/>
    <rect x="220" y="170" width="40" height="40" rx="8"/>
    <rect x="270" y="170" width="40" height="40" rx="8"/>
  </g>
  <path d="M80 140 L95 155 L115 130" stroke="#2a8a60" stroke-width="3" fill="none"/>
  <path d="M130 140 L145 155 L165 130" stroke="#2a8a60" stroke-width="3" fill="none"/>
  <path d="M180 140 L195 155 L215 130" stroke="#2a8a60" stroke-width="3" fill="none"/>
</svg>
